P3
4 4
255
255 0 0   0 255 0   0 0 255   255 255 0
255 0 255  0 255 255  128 128 128  255 128 0
0 0 0      255 255 255  100 50 150  200 200 50
50 200 200  150 0 150  0 128 255  128 0 128